<svg width="18" height="18" viewBox="0 0 18 18" fill="none" xmlns="http://www.w3.org/2000/svg">
<g clip-path="url(#clip0_2_7715)">
<path d="M2.625 16.5H14.625C15.2475 16.5 15.75 15.9975 15.75 15.375C15.75 14.7525 15.2475 14.25 14.625 14.25H2.625C2.0025 14.25 1.5 14.7525 1.5 15.375C1.5 15.9975 2.0025 16.5 2.625 16.5ZM7.9275 1.11749L2.0025 4.23749C1.695 4.39499 1.5 4.71749 1.5 5.06249C1.5 5.57999 1.92 5.99999 2.4375 5.99999H14.82C15.33 5.99999 15.75 5.57999 15.75 5.06249C15.75 4.71749 15.555 4.39499 15.2475 4.23749L9.3225 1.11749C8.8875 0.88499 8.3625 0.88499 7.9275 1.11749Z" fill="#62248F"/>
<path d="M3 11.625V8.625C3 8.0025 3.5025 7.5 4.125 7.5C4.7475 7.5 5.25 8.0025 5.25 8.625V11.625C5.25 12.2475 4.7475 12.75 4.125 12.75C3.5025 12.75 3 12.2475 3 11.625Z" fill="#FEBD00"/>
<path d="M7.5 11.625V8.625C7.5 8.0025 8.0025 7.5 8.625 7.5C9.2475 7.5 9.75 8.0025 9.75 8.625V11.625C9.75 12.2475 9.2475 12.75 8.625 12.75C8.0025 12.75 7.5 12.2475 7.5 11.625Z" fill="#FEBD00"/>
<path d="M12 11.625V8.625C12 8.0025 12.5025 7.5 13.125 7.5C13.7475 7.5 14.25 8.0025 14.25 8.625V11.625C14.25 12.2475 13.7475 12.75 13.125 12.75C12.5025 12.75 12 12.2475 12 11.625Z" fill="#FEBD00"/>
</g>
<defs>
<clipPath id="clip0_2_7715">
<rect width="18" height="18" fill="white"/>
</clipPath>
</defs>
</svg>
