<svg width="28" height="28" viewBox="0 0 28 28" fill="none" xmlns="http://www.w3.org/2000/svg">
<path d="M18.2435 26.7614L15.1926 25.4757C15.0105 25.399 14.8227 25.3411 14.6322 25.301V17.6915C14.6322 16.7029 14.7583 15.7184 15.0075 14.7618L15.2073 13.995C15.2073 13.9857 12.7471 13.968 12.7471 13.968L12.9554 14.7776C13.199 15.7238 13.3222 16.6969 13.3222 17.674V25.3113C13.1473 25.3509 12.975 25.4051 12.8074 25.4757L9.75654 26.7614C9.63169 26.814 9.66931 27 9.80477 27H18.1953C18.3307 27 18.3683 26.814 18.2435 26.7614Z" fill="#FEBD00"/>
<path d="M18.9085 2H9.09142C8.84817 2 8.63101 2.15148 8.54706 2.37981C8.03404 3.7751 6.38433 8.70968 7.37188 12.0426C8.33827 15.3042 11.2118 16.701 12.8403 17.2441C13.5933 17.4953 14.4067 17.4953 15.1597 17.2441C16.7882 16.701 19.6617 15.3041 20.6281 12.0426C21.6157 8.70968 19.9659 3.7751 19.4529 2.37981C19.3689 2.15148 19.1518 2 18.9085 2Z" fill="#FEBD00"/>
<path d="M19.4529 2.37981C19.3689 2.15148 19.1517 2 18.9085 2H16.5732C16.5732 2 19.0533 8.12676 17.8931 12.0426C16.9666 15.1693 14.2875 16.5822 12.6328 17.1722C12.7036 17.1975 12.7733 17.2217 12.8402 17.2441C13.5932 17.4952 14.4066 17.4952 15.1597 17.2441C16.7881 16.7009 19.6616 15.3041 20.628 12.0426C21.6156 8.70968 19.9659 3.7751 19.4529 2.37981Z" fill="#FEBD00"/>
<path d="M7.10309 10.5735C7.14859 11.0849 7.23456 11.5793 7.37182 12.0426C8.33815 15.3039 11.2112 16.7007 12.8398 17.244C13.5928 17.4952 14.407 17.4952 15.1601 17.244C16.7886 16.7007 19.6617 15.3039 20.628 12.0426C20.7653 11.5793 20.8513 11.0849 20.8967 10.5735H7.10309Z" fill="#FEBD00"/>
<path d="M20.6879 11.8243C20.6982 11.7844 20.7084 11.7444 20.7179 11.7041C20.7224 11.6852 20.7266 11.6661 20.7309 11.6472C20.7399 11.6078 20.7488 11.5683 20.7571 11.5284C20.7609 11.5104 20.7645 11.4922 20.7681 11.4741C20.7766 11.4323 20.7848 11.3904 20.7925 11.3482C20.7955 11.3322 20.7983 11.3161 20.8012 11.3001C20.8093 11.2542 20.8171 11.2081 20.8244 11.1618C20.8264 11.1494 20.8283 11.1369 20.8303 11.1245C20.8383 11.0723 20.8458 11.0199 20.8529 10.9672C20.8538 10.9604 20.8548 10.9535 20.8557 10.9467C20.8719 10.8234 20.8855 10.699 20.8967 10.5735H18.1615C18.116 11.0849 18.0302 11.5794 17.8929 12.0426C16.9665 15.1694 14.2874 16.5823 12.6327 17.1723C12.6632 17.1831 12.6934 17.1937 12.7234 17.2041C12.7616 17.2174 12.7998 17.2306 12.8368 17.243C12.8378 17.2433 12.8388 17.2437 12.8398 17.244C13.5927 17.4951 14.4068 17.4951 15.1598 17.244C15.1895 17.2341 15.2204 17.2233 15.2509 17.2128C15.2727 17.2053 15.2938 17.1983 15.316 17.1906C15.3455 17.1802 15.3762 17.1689 15.4064 17.158C15.4306 17.1493 15.4543 17.141 15.4789 17.132C15.5063 17.1218 15.5347 17.1108 15.5626 17.1003C15.5911 17.0895 15.6191 17.0792 15.6481 17.0679C15.6721 17.0586 15.697 17.0484 15.7214 17.0387C15.7551 17.0254 15.7884 17.0124 15.8227 16.9984C15.8566 16.9845 15.8914 16.9696 15.9258 16.9551C15.9514 16.9444 15.9764 16.9341 16.0022 16.923C16.0334 16.9096 16.0652 16.8953 16.0968 16.8813C16.1267 16.8681 16.1562 16.8555 16.1864 16.8417C16.2188 16.8271 16.2518 16.8113 16.2845 16.7961C16.3144 16.7822 16.344 16.7688 16.3741 16.7544C16.4042 16.7401 16.4347 16.7247 16.465 16.7099C16.4984 16.6936 16.5317 16.6777 16.5654 16.6607C16.5856 16.6505 16.6061 16.6395 16.6264 16.6292C16.6705 16.6066 16.7146 16.5843 16.7591 16.5606C16.7898 16.5443 16.8208 16.527 16.8517 16.5102C16.8861 16.4915 16.9204 16.4732 16.955 16.4539C16.9841 16.4376 17.0134 16.4202 17.0426 16.4034C17.0792 16.3824 17.1158 16.3619 17.1525 16.3402C17.172 16.3286 17.1917 16.3162 17.2112 16.3044C17.2577 16.2764 17.3043 16.2486 17.3509 16.2195C17.3686 16.2084 17.3863 16.1965 17.404 16.1853C17.4525 16.1545 17.501 16.1237 17.5495 16.0916C17.5687 16.0789 17.5877 16.0654 17.6069 16.0525C17.6539 16.0208 17.7011 15.9893 17.7481 15.9563C17.7661 15.9436 17.784 15.9301 17.8021 15.9172C17.8501 15.8831 17.8981 15.8489 17.9458 15.8133C17.958 15.8042 17.9701 15.7945 17.9823 15.7853C18.1014 15.6957 18.2197 15.6023 18.3367 15.5039C18.3413 15.5 18.3458 15.4958 18.3505 15.4919C18.4102 15.4414 18.4696 15.39 18.5285 15.3372C18.5386 15.3281 18.5485 15.3185 18.5585 15.3093C18.6118 15.261 18.6648 15.2123 18.7173 15.162C18.7259 15.1537 18.7344 15.1449 18.7429 15.1366C18.7965 15.0847 18.8499 15.0323 18.9025 14.9783C18.9055 14.9752 18.9084 14.9718 18.9115 14.9687C18.9694 14.9091 19.0268 14.8483 19.0834 14.786C19.0903 14.7783 19.097 14.7702 19.1039 14.7625C19.1563 14.7043 19.2084 14.6453 19.2595 14.5847C19.2644 14.5788 19.2692 14.5725 19.2741 14.5666C19.3268 14.5037 19.379 14.4398 19.4301 14.3744C19.4352 14.3679 19.44 14.361 19.445 14.3546C19.6072 14.1453 19.7612 13.9234 19.904 13.6871C19.9111 13.6753 19.9177 13.6628 19.9248 13.651C20.0151 13.4995 20.1015 13.3431 20.1823 13.1802C20.1891 13.1663 20.1954 13.1516 20.2022 13.1376C20.3247 12.8865 20.4356 12.6222 20.5318 12.3429C20.5656 12.2446 20.5977 12.1445 20.6279 12.0426C20.6443 11.9872 20.6598 11.9314 20.6748 11.8752C20.6794 11.8584 20.6835 11.8413 20.6879 11.8243Z" fill="#FEBD00"/>
<path d="M12.1115 9.06594L14.5015 5.40122C14.5655 5.30302 14.7183 5.35897 14.7037 5.4753L14.4103 7.82313C14.402 7.8891 14.4535 7.94737 14.5199 7.94737H16.0198C16.1101 7.94737 16.1623 8.04985 16.1092 8.1229L13.5461 11.6472C13.4786 11.7399 13.332 11.6812 13.3471 11.5676L13.6412 9.36198C13.65 9.29572 13.5985 9.23684 13.5317 9.23684H12.204C12.1163 9.23684 12.0635 9.13946 12.1115 9.06594Z" fill="#62248F"/>
</svg>
