<svg width="26" height="26" viewBox="0 0 26 26" fill="none" xmlns="http://www.w3.org/2000/svg">
<path d="M19.68 5.85205V24.6645C19.68 25.4021 19.0821 26 18.3446 26H2.84939C2.11179 26 1.51395 25.4021 1.51395 24.6645V5.85205C1.51395 5.11445 2.11185 4.5166 2.84939 4.5166H18.3446C19.0822 4.5166 19.68 5.1145 19.68 5.85205Z" fill="#EAA900"/>
<path d="M19.68 5.85205V24.2601H4.32565C3.58805 24.2601 2.9902 23.6623 2.9902 22.9247V4.5166H18.3446C19.0822 4.5166 19.68 5.1145 19.68 5.85205Z" fill="#FEBD00"/>
<path d="M23.5378 20.617L8.71004 25.1143C8.00408 25.3283 7.25861 24.9297 7.04451 24.2243L1.58406 6.2211C1.36945 5.51565 1.76804 4.76967 2.474 4.55558L2.76238 4.46808L17.3017 0.0578317C18.0077 -0.156211 18.7531 0.242371 18.9672 0.948332L24.3043 18.5429L24.4283 18.9515C24.6422 19.657 24.2437 20.403 23.5378 20.617Z" fill="#EAA900"/>
<path d="M24.3043 18.5429L9.76446 22.9526C9.0585 23.1667 8.31304 22.7681 8.09894 22.0627L2.76239 4.46808L17.3017 0.0578317C18.0077 -0.156211 18.7532 0.242371 18.9672 0.948332L24.3043 18.5429Z" fill="#FEBD00"/>
<path d="M11.1599 9.00891C11.7591 9.04781 12.0531 9.08656 12.1902 9.53851C12.3081 9.92719 12.1608 10.1696 11.7268 10.3012C11.3232 10.4236 11.1268 10.309 10.9535 10.2078C10.8373 10.14 10.7057 10.0631 10.5411 10.113C10.2901 10.1891 10.1749 10.5105 10.2433 10.7362C10.3556 11.1065 10.9278 11.3406 11.5545 11.2886L11.6023 11.4462C11.6817 11.7078 11.959 11.856 12.2206 11.7767C12.4821 11.6973 12.6304 11.42 12.551 11.1584L12.5001 10.9903C13.1167 10.6201 13.3379 9.98254 13.1068 9.22087C12.7725 8.11882 11.8885 8.06621 11.3603 8.03483L11.2986 8.03122C10.7736 8.00095 10.5376 7.97455 10.4439 7.6658C10.3918 7.494 10.4151 7.36954 10.5196 7.26204C10.6289 7.1494 10.7995 7.081 10.9234 7.04337C11.2228 6.95258 11.4111 6.987 11.5485 7.01209C11.6462 7.02997 11.7386 7.04688 11.8392 7.01636C12.1223 6.93049 12.1914 6.59447 12.1308 6.395C12.002 5.97042 11.3546 6.01419 11.0078 6.07066L10.9596 5.91171C10.8802 5.65014 10.6029 5.50191 10.3414 5.58118C10.0798 5.66055 9.93159 5.93786 10.0109 6.19944L10.0771 6.41775C9.52509 6.78083 9.32983 7.33227 9.52727 7.98333C9.8117 8.92126 10.5593 8.96981 11.1599 9.00891Z" fill="#62248F"/>
<path d="M19.1825 11.2961C19.1191 11.0871 18.8982 10.9692 18.6893 11.0325L7.41717 14.4516C7.20821 14.5151 7.09019 14.7359 7.15357 14.9448C7.20536 15.1156 7.36218 15.2256 7.53179 15.2256C7.56982 15.2256 7.60852 15.2201 7.6467 15.2085L18.9189 11.7893C19.1279 11.7259 19.2459 11.5051 19.1825 11.2961Z" fill="#62248F"/>
<path d="M19.8406 13.466C19.7772 13.257 19.5564 13.1391 19.3475 13.2024L8.07528 16.6215C7.86632 16.6849 7.7483 16.9057 7.81168 17.1147C7.86348 17.2854 8.02029 17.3955 8.1899 17.3955C8.22793 17.3955 8.26663 17.3899 8.30482 17.3783L19.577 13.9592C19.7859 13.8958 19.904 13.675 19.8406 13.466Z" fill="#62248F"/>
<path d="M20.4988 15.6357C20.4354 15.4267 20.2144 15.3088 20.0056 15.3721L8.73349 18.7912C8.52452 18.8547 8.40651 19.0755 8.46988 19.2844C8.52168 19.4552 8.67849 19.5652 8.8481 19.5652C8.88614 19.5652 8.92483 19.5597 8.96302 19.5481L20.2352 16.1289C20.4442 16.0655 20.5622 15.8447 20.4988 15.6357Z" fill="#62248F"/>
<path d="M21.157 17.8054C21.0935 17.5963 20.8727 17.4785 20.6638 17.5417L9.3916 20.9609C9.18263 21.0243 9.06462 21.2451 9.12799 21.4541C9.17979 21.6248 9.3366 21.7349 9.50621 21.7349C9.54425 21.7349 9.58294 21.7293 9.62113 21.7177L20.8933 18.2986C21.1023 18.2351 21.2203 18.0143 21.157 17.8054Z" fill="#62248F"/>
<path d="M7.69251 2.97296L6.93541 3.20229C6.7008 2.50476 6.0407 2.00127 5.26517 2.00127C4.29347 2.00127 3.50316 2.79157 3.50316 3.76327V8.33435C3.50316 8.90218 3.96552 9.36455 4.53336 9.36455C5.10119 9.36455 5.56356 8.90218 5.56356 8.33435V3.77328C5.56356 3.72163 5.55142 3.67258 5.52877 3.62936C5.47657 3.52653 5.36957 3.45589 5.24617 3.45589C5.07113 3.45589 4.92879 3.59823 4.92879 3.77328V7.69638C4.92879 7.91464 4.75167 8.09182 4.53336 8.09182C4.31505 8.09182 4.13792 7.91469 4.13792 7.69638V3.77328C4.13792 3.16223 4.63512 2.66503 5.24617 2.66503C5.72595 2.66503 6.1351 2.97134 6.28902 3.39841C6.33122 3.51546 6.35437 3.64201 6.35437 3.77328V8.3343C6.35437 9.33814 5.53715 10.1553 4.53336 10.1553C3.52901 10.1553 2.71234 9.33809 2.71234 8.3343V3.76327C2.71234 2.35557 3.85746 1.21045 5.26517 1.21045C6.39713 1.21045 7.35928 1.9512 7.69251 2.97296Z" fill="#8A4CB7"/>
</svg>
