<svg width="32" height="32" viewBox="0 0 32 32" fill="none" xmlns="http://www.w3.org/2000/svg">
<path d="M27.485 17.4587C27.485 23.1093 23.3138 24.3153 18.1684 24.3153C13.0229 24.3153 8.85175 23.1093 8.85175 17.4587C8.85175 11.8082 13.0229 6.47119 18.1684 6.47119C23.3138 6.47119 27.485 11.8082 27.485 17.4587Z" fill="#FEBD00"/>
<path d="M9.85175 18.4587C9.85175 12.8082 14.023 7.47119 19.1684 7.47119C21.1755 7.47119 23.0327 8.28574 24.5537 9.61176C22.8859 7.70505 20.6404 6.47119 18.1684 6.47119C13.023 6.47119 8.85175 11.8082 8.85175 17.4587C8.85175 19.9741 9.68173 21.605 11.0529 22.6446C10.2913 21.6379 9.85175 20.2825 9.85175 18.4587Z" fill="#FEBD00"/>
<path d="M18.1685 13.1536C17.6172 13.1536 17.1685 12.7051 17.1685 12.1536C17.1685 11.602 17.6172 11.1536 18.1685 11.1536C18.7197 11.1536 19.1685 11.602 19.1685 12.1536C19.1685 12.4297 19.3921 12.6536 19.6685 12.6536C19.9448 12.6536 20.1685 12.4297 20.1685 12.1536C20.1685 11.2244 19.5287 10.4481 18.6685 10.2245V9.63867C18.6685 9.36255 18.4448 9.13867 18.1685 9.13867C17.8921 9.13867 17.6685 9.36255 17.6685 9.63867V10.2245C16.8082 10.4481 16.1685 11.2244 16.1685 12.1536C16.1685 13.2563 17.0654 14.1536 18.1685 14.1536C18.7197 14.1536 19.1685 14.602 19.1685 15.1536C19.1685 15.7051 18.7197 16.1536 18.1685 16.1536C17.6172 16.1536 17.1685 15.7051 17.1685 15.1536C17.1685 14.8774 16.9448 14.6536 16.6685 14.6536C16.3923 14.6536 16.1685 14.8774 16.1685 15.1536C16.1685 16.0827 16.8082 16.859 17.6685 17.0826V17.6682C17.6685 17.9443 17.8921 18.1682 18.1685 18.1682C18.4448 18.1682 18.6685 17.9443 18.6685 17.6682V17.0826C19.5287 16.859 20.1685 16.0827 20.1685 15.1536C20.1685 14.0508 19.2715 13.1536 18.1685 13.1536Z" fill="#62248F"/>
<path d="M15.8691 6.83438C16.6046 6.59888 17.3748 6.4711 18.1684 6.4711C18.962 6.4711 19.7322 6.59888 20.4677 6.83438L22.9557 4.34641C23.5224 3.7797 23.5224 2.86087 22.9557 2.29413C22.389 1.72742 21.4701 1.72742 20.9034 2.29413L19.9756 3.22196C19.9253 2.26358 19.1393 1.5 18.1684 1.5C17.1975 1.5 16.4115 2.26358 16.3612 3.22193L15.4334 2.29413C14.8666 1.72742 13.9478 1.72742 13.3811 2.29413C12.8144 2.86087 12.8144 3.7797 13.3811 4.34641L15.8691 6.83438Z" fill="#FEBD00"/>
<path d="M1.5 19.1794H6.627V28.8754H1.5V19.1794Z" fill="#62248F"/>
<path d="M6.62716 20.1797V19.1797H1.5V28.8756H2.5V24.3069C2.5 22.0275 4.34779 20.1797 6.62716 20.1797Z" fill="#62248F"/>
<path d="M6.62717 27.4035C7.18557 27.7588 17.6937 30.5001 17.6937 30.5001L29.1698 25.3893C30.373 24.8534 30.857 23.4006 30.2156 22.2502C29.7058 21.3358 28.6307 20.8961 27.6262 21.1912L19.2674 23.6469C19.2674 22.2909 18.3784 21.0952 17.0798 20.7047L12.0082 19.1797L6.62717 21.0072L6.62717 27.4035Z" fill="#FFE0B2"/>
<path d="M29.1698 23.8892L17.6937 29C17.6937 29 7.18558 26.2587 6.62717 25.9033V27.4033C7.18558 27.7587 17.6937 30.5 17.6937 30.5L29.1698 25.3892C30.2553 24.9058 30.7467 23.6778 30.3633 22.5972C30.1648 23.1505 29.7543 23.6288 29.1698 23.8892Z" fill="#FECC81"/>
<path d="M19.5825 23.2609C19.3687 23.0866 19.0552 23.1186 18.8799 23.331C18.8252 23.3969 17.5054 24.9423 14.5234 24.3493C14.2522 24.2939 13.9895 24.4719 13.9355 24.7424C13.8818 25.0134 14.0579 25.2766 14.3286 25.3303C14.874 25.4384 15.3745 25.4846 15.8318 25.4846C18.3984 25.4846 19.5991 24.0327 19.6572 23.9599C19.8296 23.7458 19.7954 23.4345 19.5825 23.2609Z" fill="#FECC81"/>
<path d="M4.54321 20.6604H3.58398C3.30786 20.6604 3.08398 20.8843 3.08398 21.1604C3.08398 21.4365 3.30786 21.6604 3.58398 21.6604H4.54321C4.81934 21.6604 5.04321 21.4365 5.04321 21.1604C5.04321 20.8843 4.81934 20.6604 4.54321 20.6604Z" fill="#FFE0B2"/>
</svg>
