<svg width="24" height="25" viewBox="0 0 24 25" fill="none" xmlns="http://www.w3.org/2000/svg">
<path d="M20.9648 22.124C20.9648 23.5074 19.8433 24.6289 18.46 24.6289H1.98047L3.5625 21.4649V1.95314C3.5625 1.06889 4.29018 0.350756 5.18224 0.371534L20.9648 3.53517V22.124Z" fill="#FEBD00"/>
<path d="M23.6016 19.3555V20.9375C23.6016 21.2288 23.3655 21.4649 23.0742 21.4649C22.8457 21.4649 16.7072 21.4649 16.7461 21.4649C16.4548 21.4649 16.2188 21.2288 16.2188 20.9375V19.3555C16.2188 19.0642 16.4548 18.8281 16.7461 18.8281L19.3301 18.1074L22.0195 18.8281C22.6834 18.8281 23.1141 18.8281 23.0742 18.8281C23.3655 18.8281 23.6016 19.0642 23.6016 19.3555Z" fill="#62248F"/>
<path d="M23.6016 14.082V15.6641C23.6016 15.9553 23.3655 16.1914 23.0742 16.1914C23.041 16.1914 22.6245 16.1914 22.0195 16.1914L19.3301 16.7188L16.7461 16.1914C16.4548 16.1914 16.2188 15.9553 16.2188 15.6641V14.082C16.2188 13.7908 16.4548 13.5547 16.7461 13.5547C16.8246 13.5547 18.1542 12.5 19.5058 12.5C20.6815 12.5 21.8481 13.5547 22.5469 13.5547C22.9185 13.5547 23.128 13.5547 23.0742 13.5547C23.3655 13.5547 23.6016 13.7908 23.6016 14.082Z" fill="#62248F"/>
<path d="M22.5469 16.7188V18.3008C22.5469 18.592 22.3108 18.8281 22.0195 18.8281C21.8364 18.8281 15.4204 18.8281 15.6914 18.8281C15.4002 18.8281 15.1641 18.592 15.1641 18.3008V16.7188C15.1641 16.4275 15.4002 16.1914 15.6914 16.1914C15.8256 16.1914 22.2029 16.1914 22.0195 16.1914C22.3108 16.1914 22.5469 16.4275 22.5469 16.7188Z" fill="#8A4CB7"/>
<path d="M22.5469 11.4453V13.0273C22.5469 13.3186 22.3112 13.5547 22.02 13.5547C20.3243 13.5547 15.5628 13.5547 15.6914 13.5547C15.4002 13.5547 15.1641 13.3186 15.1641 13.0273V11.4453C15.1641 11.1541 15.4002 10.918 15.6914 10.918C15.8785 10.918 22.2063 10.918 22.0195 10.918C22.3108 10.918 22.5469 11.1541 22.5469 11.4453Z" fill="#8A4CB7"/>
<path d="M22.0195 2.77051V3.00781C22.0195 3.29906 21.7834 3.53516 21.4922 3.53516H20.9648H7.25391C6.96265 3.53516 6.72656 3.29906 6.72656 3.00781V1.95312C6.72656 1.07932 6.01834 0.371094 5.14453 0.371094H19.6201C20.9453 0.371094 22.0195 1.44535 22.0195 2.77051Z" fill="#EAA900"/>
<path d="M3.5625 21.4648V23.0149C3.5625 23.8793 2.88244 24.6083 2.01817 24.6285C1.12501 24.6493 0.398438 23.93 0.398438 23.0469V21.9922C0.398438 21.7009 0.634529 21.4648 0.925781 21.4648H3.5625Z" fill="#EAA900"/>
<path d="M12.5273 6.69922H5.67188C5.38062 6.69922 5.14453 6.46313 5.14453 6.17188C5.14453 5.88062 5.38062 5.64453 5.67188 5.64453H12.5273C12.8186 5.64453 13.0547 5.88062 13.0547 6.17188C13.0547 6.46313 12.8186 6.69922 12.5273 6.69922Z" fill="#FADE65"/>
<path d="M12.5273 9.33594H5.67188C5.38062 9.33594 5.14453 9.09985 5.14453 8.80859C5.14453 8.51734 5.38062 8.28125 5.67188 8.28125H12.5273C12.8186 8.28125 13.0547 8.51734 13.0547 8.80859C13.0547 9.09985 12.8186 9.33594 12.5273 9.33594Z" fill="#FADE65"/>
<path d="M12.5273 11.9727H5.67188C5.38062 11.9727 5.14453 11.7366 5.14453 11.4453C5.14453 11.1541 5.38062 10.918 5.67188 10.918H12.5273C12.8186 10.918 13.0547 11.1541 13.0547 11.4453C13.0547 11.7366 12.8186 11.9727 12.5273 11.9727Z" fill="#FADE65"/>
<path d="M12.5273 14.6094H5.67188C5.38062 14.6094 5.14453 14.3732 5.14453 14.082C5.14453 13.7908 5.38062 13.5547 5.67188 13.5547H12.5273C12.8186 13.5547 13.0547 13.7908 13.0547 14.082C13.0547 14.3732 12.8186 14.6094 12.5273 14.6094Z" fill="#FADE65"/>
<path d="M12.5273 17.2461H5.67188C5.38062 17.2461 5.14453 17.0099 5.14453 16.7188C5.14453 16.4276 5.38062 16.1914 5.67188 16.1914H12.5273C12.8186 16.1914 13.0547 16.4276 13.0547 16.7188C13.0547 17.0099 12.8186 17.2461 12.5273 17.2461Z" fill="#FADE65"/>
</svg>
