<svg width="30" height="24" viewBox="0 0 30 24" fill="none" xmlns="http://www.w3.org/2000/svg">
<path d="M23.8483 12.6936C23.6234 12.6937 23.4037 12.7609 23.2173 12.8868C23.031 13.0127 22.8865 13.1913 22.8024 13.4C22.7184 13.6086 22.6986 13.8376 22.7456 14.0575C22.7927 14.2775 22.9044 14.4784 23.0664 14.6344L25.6478 17.2141H16.9032C16.753 17.2108 16.6037 17.2376 16.464 17.2928C16.3242 17.348 16.197 17.4305 16.0896 17.5356C15.9822 17.6406 15.8969 17.7661 15.8386 17.9046C15.7804 18.0431 15.7504 18.1918 15.7504 18.3421C15.7504 18.4923 15.7804 18.641 15.8386 18.7795C15.8969 18.918 15.9822 19.0435 16.0896 19.1486C16.197 19.2536 16.3242 19.3362 16.464 19.3914C16.6037 19.4466 16.753 19.4732 16.9032 19.4699H25.6566L23.0664 22.0607C22.9586 22.165 22.8726 22.2896 22.8135 22.4275C22.7544 22.5654 22.7234 22.7138 22.7224 22.8638C22.7213 23.0138 22.7501 23.1625 22.8072 23.3012C22.8643 23.44 22.9485 23.5659 23.0549 23.6717C23.1612 23.7775 23.2876 23.8611 23.4266 23.9174C23.5656 23.9738 23.7145 24.0018 23.8645 23.9999C24.0144 23.998 24.1625 23.9661 24.3001 23.9062C24.4376 23.8464 24.5618 23.7597 24.6655 23.6513L29.1763 19.1461C29.2816 19.0413 29.3652 18.9167 29.4222 18.7795C29.4793 18.6423 29.5086 18.4951 29.5086 18.3465C29.5086 18.1979 29.4793 18.0507 29.4222 17.9135C29.3652 17.7762 29.2816 17.6516 29.1763 17.5468L24.6655 13.0351C24.5594 12.9259 24.4322 12.8395 24.2918 12.7808C24.1514 12.7221 24.0005 12.6925 23.8483 12.6936Z" fill="#62248F"/>
<path d="M4.84316 0.341991C5.04741 0.131719 5.32548 0.00916663 5.61845 0.000428005C5.8457 -0.00583369 6.06953 0.0567354 6.2606 0.179938C6.45167 0.30314 6.60106 0.481244 6.68917 0.690849C6.77728 0.900455 6.8 1.13182 6.75436 1.35457C6.70872 1.57731 6.59684 1.78104 6.43339 1.93908L3.84321 4.52985H12.0143C12.3091 4.53633 12.5896 4.65799 12.7958 4.86881C13.002 5.07963 13.1175 5.36279 13.1175 5.65772C13.1175 5.95264 13.002 6.23593 12.7958 6.44675C12.5896 6.65757 12.3091 6.77923 12.0143 6.78571H3.85202L6.43339 9.36762C6.5456 9.47034 6.63586 9.59464 6.69877 9.73316C6.76168 9.87167 6.79592 10.0215 6.79944 10.1736C6.80296 10.3257 6.77569 10.4769 6.71926 10.6182C6.66282 10.7595 6.5784 10.8879 6.47107 10.9957C6.36374 11.1035 6.23572 11.1884 6.09471 11.2454C5.95369 11.3025 5.8026 11.3304 5.65053 11.3275C5.49845 11.3246 5.34853 11.291 5.20978 11.2286C5.07103 11.1663 4.94632 11.0766 4.84316 10.9648L0.332371 6.453C0.227032 6.34818 0.143442 6.22353 0.0864024 6.0863C0.0293633 5.94906 0 5.80191 0 5.65329C0 5.50466 0.0293633 5.35751 0.0864024 5.22027C0.143442 5.08304 0.227032 4.95852 0.332371 4.8537L4.84316 0.341991Z" fill="#62248F"/>
<rect x="14.6736" y="2.05884" width="12.8529" height="7.15879" rx="1" fill="#FEBD00"/>
<rect x="1" y="15" width="12.8529" height="7.15879" rx="1" fill="#FEBD00"/>
</svg>
