<svg width="24" height="24" viewBox="0 0 24 24" fill="none" xmlns="http://www.w3.org/2000/svg">
<path d="M19 12.75C19 16.616 19 20.75 12 20.75C5 20.75 5 16.616 5 12.75C5 8.88401 7.5 6.25 12 6.25C16 6.25 19 8.88401 19 12.75Z" fill="#62248F"/>
<path d="M8.00006 4.75C8.00006 3.92157 8.67164 3.25 9.50006 3.25H12.0001H14.5001C15.3285 3.25 16.0001 3.92157 16.0001 4.75C16.0001 5.57843 15.3285 6.25 14.5001 6.25H9.50006C8.67164 6.25 8.00006 5.57843 8.00006 4.75Z" fill="#62248F"/>
<path d="M8.99994 6.25024C8.99994 5.9741 9.22379 5.75024 9.49994 5.75024H11.9999H14.4999C14.7761 5.75024 14.9999 5.9741 14.9999 6.25024C14.9999 6.52639 14.7761 6.75024 14.4999 6.75024H9.49994C9.22379 6.75024 8.99994 6.52639 8.99994 6.25024Z" fill="#FEBD00"/>
<circle cx="11.9998" cy="13.7498" r="2" fill="#FEBD00"/>
</svg>
