<svg width="24" height="24" viewBox="0 0 24 24" fill="none" xmlns="http://www.w3.org/2000/svg">
<g clip-path="url(#clip0_2_7572)">
<path d="M21 7C20.45 7 20 6.55 20 6V4H18C17.45 4 17 3.55 17 3C17 2.45 17.45 2 18 2H21C21.55 2 22 2.45 22 3V6C22 6.55 21.55 7 21 7ZM22 21V18C22 17.45 21.55 17 21 17C20.45 17 20 17.45 20 18V20H18C17.45 20 17 20.45 17 21C17 21.55 17.45 22 18 22H21C21.55 22 22 21.55 22 21ZM3 22H6C6.55 22 7 21.55 7 21C7 20.45 6.55 20 6 20H4V18C4 17.45 3.55 17 3 17C2.45 17 2 17.45 2 18V21C2 21.55 2.45 22 3 22ZM2 3V6C2 6.55 2.45 7 3 7C3.55 7 4 6.55 4 6V4H6C6.55 4 7 3.55 7 3C7 2.45 6.55 2 6 2H3C2.45 2 2 2.45 2 3Z" fill="#62248F"/>
<path fill-rule="evenodd" clip-rule="evenodd" d="M11 5H5V11H11V5ZM9.5 9.5V6.5H6.5V9.5H9.5Z" fill="#FEBD00"/>
<path fill-rule="evenodd" clip-rule="evenodd" d="M19 5H13V11H19V5ZM17.5 9.5V6.5H14.5V9.5H17.5Z" fill="#FEBD00"/>
<path fill-rule="evenodd" clip-rule="evenodd" d="M11 13H5V19H11V13ZM9.5 17.5V14.5H6.5V17.5H9.5Z" fill="#FEBD00"/>
<path fill-rule="evenodd" clip-rule="evenodd" d="M13 13H14.5V14.5H13V13ZM16 14.5H14.5V16H13V17.5H14.5V19H16V17.5H17.5V19H19V17.5H17.5V16H19V14.5H17.5V13H16V14.5ZM16 16H14.5V17.5H16V16ZM16 16V14.5H17.5V16H16Z" fill="#FEBD00"/>
</g>
<defs>
<clipPath id="clip0_2_7572">
<rect width="24" height="24" fill="white"/>
</clipPath>
</defs>
</svg>
