<svg width="20" height="20" viewBox="0 0 20 20" fill="none" xmlns="http://www.w3.org/2000/svg">
<path d="M9.08881 2C13.0018 2 16.1776 5.17579 16.1776 9.08881C16.1776 13.0018 13.0018 16.1776 9.08881 16.1776C5.17579 16.1776 2 13.0018 2 9.08881C2 5.17579 5.17579 2 9.08881 2ZM9.08881 14.6023C12.135 14.6023 14.6023 12.135 14.6023 9.08881C14.6023 6.04259 12.135 3.57529 9.08881 3.57529C6.04259 3.57529 3.57529 6.04259 3.57529 9.08881C3.57529 12.135 6.04259 14.6023 9.08881 14.6023Z" fill="#62248F"/>
<path d="M17.9999 16.886L15.7721 14.6582L14.6582 15.7721L16.886 17.9999L17.9999 16.886Z" fill="#FEBD00"/>
</svg>
