<svg width="24" height="24" viewBox="0 0 24 24" fill="none" xmlns="http://www.w3.org/2000/svg">
<g clip-path="url(#clip0_2_7561)">
<path d="M12 23C17.7 23 22.39 18.66 22.95 13.1C23.01 12.51 22.54 12 21.95 12C21.44 12 21.01 12.38 20.96 12.88C20.52 17.44 16.67 21 12 21C8.88 21 6.13 19.41 4.52 17H6C6.55 17 7 16.55 7 16C7 15.45 6.55 15 6 15H2C1.45 15 1 15.45 1 16V20C1 20.55 1.45 21 2 21C2.55 21 3 20.55 3 20V18.33C4.99 21.15 8.28 23 12 23ZM12 1C6.3 1 1.61 5.34 1.05 10.9C1 11.49 1.46 12 2.05 12C2.56 12 2.99 11.62 3.04 11.12C3.48 6.56 7.33 3 12 3C15.12 3 17.87 4.59 19.48 7H18C17.45 7 17 7.45 17 8C17 8.55 17.45 9 18 9H22C22.55 9 23 8.55 23 8V4C23 3.45 22.55 3 22 3C21.45 3 21 3.45 21 4V5.67C19.01 2.85 15.72 1 12 1Z" fill="#62248F"/>
<path d="M11.9999 5C11.5199 5 11.1199 5.39 11.1199 5.88V6.25C8.5099 6.81 8.4999 9.11 8.4999 9.21C8.4999 11.49 10.7499 12.13 11.8499 12.52C13.4299 13.09 14.1299 13.59 14.1299 14.55C14.1299 15.68 13.0799 16.16 12.1499 16.16C10.9799 16.16 10.3499 15.4 10.0299 14.79C9.8199 14.4 9.3299 14.25 8.9199 14.41C8.4599 14.59 8.1999 15.17 8.4299 15.61C9.1899 17.1 10.4899 17.56 11.1199 17.71V18.13C11.1199 18.62 11.5099 19.01 11.9999 19.01C12.4899 19.01 12.8799 18.61 12.8799 18.13V17.76C13.3999 17.67 15.8999 17.16 15.8999 14.54C15.8999 13.14 15.2899 11.92 12.8899 11.09C11.1099 10.5 10.2499 10.14 10.2499 9.19C10.2499 8.17 11.3599 7.8 12.0599 7.8C12.8799 7.8 13.3799 8.19 13.6599 8.57C13.8999 8.88 14.3199 9 14.6799 8.85C15.1999 8.63 15.3799 7.99 15.0399 7.55C14.6299 7.01 13.9499 6.44 12.8799 6.25V5.88C12.8799 5.39 12.4799 5 11.9999 5Z" fill="#FEBD00"/>
</g>
<defs>
<clipPath id="clip0_2_7561">
<rect width="24" height="24" fill="white"/>
</clipPath>
</defs>
</svg>
